# xmcd
#
# Track frame offsets: 
#        150
#        18465
#        38855
#        59605
#        82085
#        103265
#        125860
#        143785
#        161002
#        185460
#
# Disc length: 2684 seconds
#
# Revision: 3
# Processed by: cddbd v1.5.2PL0 Copyright (c) Steve Scherf et al.
# Submitted via: ExactAudioCopy v1.0b3
#
DISCID=930a7a0a
DTITLE=Trinh Nam Son, VA - Nhung Sang Tac Moi
DYEAR=1992
DGENRE=
TTITLE0=Trinh Nam Son - Ve day em
TTITLE1=Trinh Nam Son - Nho
TTITLE2=Jenny Loan - Neu anh di
TTITLE3=Trinh Nam Son - Mot nguyen uoc
TTITLE4=Don Ho, Ha Thanh Lich - Hanh phuc trong mua xuan
TTITLE5=Trinh Nam Son - Tan vo
TTITLE6=Jenny Loan - Van cho anh
TTITLE7=Trinh Nam Son - Loi binh yen
TTITLE8=Ngoc Bich - Van mot mua thu
TTITLE9=Trinh Nam Son - Cho em
EXTD=
EXTT0=
EXTT1=
EXTT2=
EXTT3=
EXTT4=
EXTT5=
EXTT6=
EXTT7=
EXTT8=
EXTT9=
PLAYORDER=
